
<svg version="1.0" xmlns="http://www.w3.org/2000/svg"
 width="512.000000pt" height="512.000000pt" viewBox="0 0 512.000000 512.000000"
 preserveAspectRatio="xMidYMid meet"><g transform="translate(0.000000,512.000000) scale(0.100000,-0.100000)"
fill="#000000" stroke="#000000"><path d="M1680 4309 c-27 -8 -215 -190 -834 -807 -854 -853 -846 -844 -846
-942 0 -98 -8 -89 846 -942 732 -729 803 -797 844 -808 54 -14 136 -8 178 14
113 58 162 207 107 318 -10 18 -274 291 -588 605 l-572 573 2065 2 2065 3 40
22 c177 95 177 331 0 426 l-40 22 -2065 3 -2065 2 572 573 c314 314 578 587
588 605 56 112 6 260 -108 318 -38 20 -139 27 -187 13z"/>
</g>
</svg>
